<mxfile host="app.diagrams.net" modified="2020-08-14T12:05:11.987Z" agent="5.0 (Macintosh; Intel Mac OS X 10_15_6) AppleWebKit/537.36 (KHTML, like Gecko) Chrome/84.0.4147.89 Safari/537.36" etag="GM0RDax8kT5EnAK-cVp9" version="13.6.2" type="github">
  <diagram id="C5RBs43oDa-KdzZeNtuy" name="Page-1">
    <mxGraphModel dx="1640" dy="1662" grid="1" gridSize="10" guides="1" tooltips="1" connect="1" arrows="1" fold="1" page="1" pageScale="1" pageWidth="827" pageHeight="1169" math="0" shadow="0">
      <root>
        <mxCell id="WIyWlLk6GJQsqaUBKTNV-0" />
        <mxCell id="WIyWlLk6GJQsqaUBKTNV-1" parent="WIyWlLk6GJQsqaUBKTNV-0" />
        <mxCell id="Rbc1TjmeXXia_k8j4YUo-80" value="" style="rounded=1;whiteSpace=wrap;html=1;strokeColor=#000000;strokeWidth=1;fillColor=#ffffff;" vertex="1" parent="WIyWlLk6GJQsqaUBKTNV-1">
          <mxGeometry x="-614" y="-58.48" width="352" height="160" as="geometry" />
        </mxCell>
        <mxCell id="Rbc1TjmeXXia_k8j4YUo-50" value="" style="rounded=1;whiteSpace=wrap;html=1;dashed=1;fillColor=#ffffff;strokeColor=#EA6B66;strokeWidth=2;" vertex="1" parent="WIyWlLk6GJQsqaUBKTNV-1">
          <mxGeometry x="-385" y="142.5" width="260" height="125" as="geometry" />
        </mxCell>
        <mxCell id="Rbc1TjmeXXia_k8j4YUo-29" value="&lt;span style=&quot;color: rgb(0 , 0 , 0) ; background-color: rgb(255 , 255 , 255) ; font-family: &amp;#34;jetbrains mono&amp;#34; , monospace ; font-size: 9pt&quot;&gt;EndpointData&lt;/span&gt;消息队列" style="shape=partialRectangle;whiteSpace=wrap;html=1;left=0;right=0;fillColor=#f5f5f5;strokeColor=#666666;fontColor=#333333;labelPosition=center;verticalLabelPosition=top;align=center;verticalAlign=bottom;" vertex="1" parent="WIyWlLk6GJQsqaUBKTNV-1">
          <mxGeometry x="-600" y="170" width="210" height="70" as="geometry" />
        </mxCell>
        <mxCell id="Rbc1TjmeXXia_k8j4YUo-32" value="" style="endArrow=classic;html=1;" edge="1" parent="WIyWlLk6GJQsqaUBKTNV-1">
          <mxGeometry width="50" height="50" relative="1" as="geometry">
            <mxPoint x="-790" y="80" as="sourcePoint" />
            <mxPoint x="-660" y="80" as="targetPoint" />
          </mxGeometry>
        </mxCell>
        <mxCell id="Rbc1TjmeXXia_k8j4YUo-33" value="注册Endpoint" style="edgeLabel;html=1;align=center;verticalAlign=middle;resizable=0;points=[];" vertex="1" connectable="0" parent="Rbc1TjmeXXia_k8j4YUo-32">
          <mxGeometry x="0.2" y="2" relative="1" as="geometry">
            <mxPoint x="-18.29" y="-8" as="offset" />
          </mxGeometry>
        </mxCell>
        <mxCell id="Rbc1TjmeXXia_k8j4YUo-34" value="" style="curved=1;endArrow=classic;html=1;entryX=0;entryY=0.5;entryDx=0;entryDy=0;" edge="1" parent="WIyWlLk6GJQsqaUBKTNV-1" target="Rbc1TjmeXXia_k8j4YUo-80">
          <mxGeometry width="50" height="50" relative="1" as="geometry">
            <mxPoint x="-660" y="80" as="sourcePoint" />
            <mxPoint x="-590" y="30" as="targetPoint" />
            <Array as="points">
              <mxPoint x="-660" y="50" />
            </Array>
          </mxGeometry>
        </mxCell>
        <mxCell id="Rbc1TjmeXXia_k8j4YUo-37" value="1" style="edgeLabel;html=1;align=center;verticalAlign=middle;resizable=0;points=[];" vertex="1" connectable="0" parent="Rbc1TjmeXXia_k8j4YUo-34">
          <mxGeometry x="0.3697" y="-5" relative="1" as="geometry">
            <mxPoint x="-16.93" y="7.3" as="offset" />
          </mxGeometry>
        </mxCell>
        <mxCell id="Rbc1TjmeXXia_k8j4YUo-36" value="" style="curved=1;endArrow=classic;html=1;entryX=0;entryY=0.25;entryDx=0;entryDy=0;" edge="1" parent="WIyWlLk6GJQsqaUBKTNV-1" target="Rbc1TjmeXXia_k8j4YUo-29">
          <mxGeometry width="50" height="50" relative="1" as="geometry">
            <mxPoint x="-660" y="80" as="sourcePoint" />
            <mxPoint x="-500" y="100" as="targetPoint" />
            <Array as="points">
              <mxPoint x="-640" y="150" />
            </Array>
          </mxGeometry>
        </mxCell>
        <mxCell id="Rbc1TjmeXXia_k8j4YUo-38" value="2" style="edgeLabel;html=1;align=center;verticalAlign=middle;resizable=0;points=[];" vertex="1" connectable="0" parent="Rbc1TjmeXXia_k8j4YUo-36">
          <mxGeometry x="0.1516" y="3" relative="1" as="geometry">
            <mxPoint x="-12.439999999999998" y="-46.66" as="offset" />
          </mxGeometry>
        </mxCell>
        <mxCell id="Rbc1TjmeXXia_k8j4YUo-39" value="" style="endArrow=classic;html=1;" edge="1" parent="WIyWlLk6GJQsqaUBKTNV-1">
          <mxGeometry width="50" height="50" relative="1" as="geometry">
            <mxPoint x="-790" y="190.08999999999997" as="sourcePoint" />
            <mxPoint x="-660" y="189.92000000000002" as="targetPoint" />
          </mxGeometry>
        </mxCell>
        <mxCell id="Rbc1TjmeXXia_k8j4YUo-40" value="发布消息" style="edgeLabel;html=1;align=center;verticalAlign=middle;resizable=0;points=[];" vertex="1" connectable="0" parent="Rbc1TjmeXXia_k8j4YUo-39">
          <mxGeometry x="0.2" y="2" relative="1" as="geometry">
            <mxPoint x="-28.330000000000002" y="-8.14" as="offset" />
          </mxGeometry>
        </mxCell>
        <mxCell id="Rbc1TjmeXXia_k8j4YUo-44" value="" style="ellipse;whiteSpace=wrap;html=1;dashed=1;" vertex="1" parent="WIyWlLk6GJQsqaUBKTNV-1">
          <mxGeometry x="-232" y="162.5" width="90" height="50" as="geometry" />
        </mxCell>
        <mxCell id="Rbc1TjmeXXia_k8j4YUo-47" value="" style="ellipse;whiteSpace=wrap;html=1;dashed=1;" vertex="1" parent="WIyWlLk6GJQsqaUBKTNV-1">
          <mxGeometry x="-262" y="182.5" width="90" height="50" as="geometry" />
        </mxCell>
        <mxCell id="Rbc1TjmeXXia_k8j4YUo-48" value="" style="ellipse;whiteSpace=wrap;html=1;dashed=1;" vertex="1" parent="WIyWlLk6GJQsqaUBKTNV-1">
          <mxGeometry x="-302" y="192.5" width="90" height="50" as="geometry" />
        </mxCell>
        <mxCell id="Rbc1TjmeXXia_k8j4YUo-49" value="" style="ellipse;whiteSpace=wrap;html=1;dashed=1;" vertex="1" parent="WIyWlLk6GJQsqaUBKTNV-1">
          <mxGeometry x="-342" y="182.5" width="90" height="50" as="geometry" />
        </mxCell>
        <mxCell id="Rbc1TjmeXXia_k8j4YUo-43" value="MessageLoop&lt;br&gt;线程" style="ellipse;whiteSpace=wrap;html=1;" vertex="1" parent="WIyWlLk6GJQsqaUBKTNV-1">
          <mxGeometry x="-372" y="162.5" width="90" height="50" as="geometry" />
        </mxCell>
        <mxCell id="Rbc1TjmeXXia_k8j4YUo-62" value="" style="rounded=0;whiteSpace=wrap;html=1;strokeWidth=1;fillColor=#dae8fc;" vertex="1" parent="WIyWlLk6GJQsqaUBKTNV-1">
          <mxGeometry x="-580" y="188.75" width="50" height="32.5" as="geometry" />
        </mxCell>
        <mxCell id="Rbc1TjmeXXia_k8j4YUo-63" value="" style="rounded=0;whiteSpace=wrap;html=1;strokeWidth=1;fillColor=#dae8fc;" vertex="1" parent="WIyWlLk6GJQsqaUBKTNV-1">
          <mxGeometry x="-520" y="188.75" width="50" height="32.5" as="geometry" />
        </mxCell>
        <mxCell id="Rbc1TjmeXXia_k8j4YUo-64" value="" style="rounded=0;whiteSpace=wrap;html=1;strokeWidth=1;fillColor=#dae8fc;" vertex="1" parent="WIyWlLk6GJQsqaUBKTNV-1">
          <mxGeometry x="-460" y="188.75" width="50" height="32.5" as="geometry" />
        </mxCell>
        <mxCell id="Rbc1TjmeXXia_k8j4YUo-65" value="" style="endArrow=classic;html=1;entryX=0;entryY=0.5;entryDx=0;entryDy=0;exitX=1;exitY=0.5;exitDx=0;exitDy=0;" edge="1" parent="WIyWlLk6GJQsqaUBKTNV-1" source="Rbc1TjmeXXia_k8j4YUo-64" target="Rbc1TjmeXXia_k8j4YUo-43">
          <mxGeometry width="50" height="50" relative="1" as="geometry">
            <mxPoint x="-400" y="212.5" as="sourcePoint" />
            <mxPoint x="-350" y="162.5" as="targetPoint" />
          </mxGeometry>
        </mxCell>
        <mxCell id="Rbc1TjmeXXia_k8j4YUo-66" value="&lt;span style=&quot;font-size: 11px ; background-color: rgb(255 , 255 , 255)&quot;&gt;EndpointData&lt;/span&gt;" style="rounded=0;whiteSpace=wrap;html=1;strokeWidth=1;fillColor=#dae8fc;labelPosition=center;verticalLabelPosition=top;align=center;verticalAlign=bottom;" vertex="1" parent="WIyWlLk6GJQsqaUBKTNV-1">
          <mxGeometry x="-601" y="-21.25" width="142" height="91.25" as="geometry" />
        </mxCell>
        <mxCell id="Rbc1TjmeXXia_k8j4YUo-69" value="Inbox" style="rounded=1;whiteSpace=wrap;html=1;strokeColor=#000000;strokeWidth=1;fillColor=#ffffff;labelPosition=center;verticalLabelPosition=top;align=center;verticalAlign=bottom;" vertex="1" parent="WIyWlLk6GJQsqaUBKTNV-1">
          <mxGeometry x="-589" y="11.52" width="120" height="50" as="geometry" />
        </mxCell>
        <mxCell id="Rbc1TjmeXXia_k8j4YUo-72" value="消息" style="rounded=0;whiteSpace=wrap;html=1;strokeColor=#2D7600;strokeWidth=1;fillColor=#60a917;fontColor=#ffffff;" vertex="1" parent="WIyWlLk6GJQsqaUBKTNV-1">
          <mxGeometry x="-579" y="25.58" width="30" height="20.63" as="geometry" />
        </mxCell>
        <mxCell id="Rbc1TjmeXXia_k8j4YUo-73" value="消息" style="rounded=0;whiteSpace=wrap;html=1;strokeColor=#2D7600;strokeWidth=1;fillColor=#60a917;fontColor=#ffffff;" vertex="1" parent="WIyWlLk6GJQsqaUBKTNV-1">
          <mxGeometry x="-544" y="25.58" width="30" height="20.63" as="geometry" />
        </mxCell>
        <mxCell id="Rbc1TjmeXXia_k8j4YUo-74" value="消息" style="rounded=0;whiteSpace=wrap;html=1;strokeColor=#2D7600;strokeWidth=1;fillColor=#60a917;fontColor=#ffffff;" vertex="1" parent="WIyWlLk6GJQsqaUBKTNV-1">
          <mxGeometry x="-509" y="25.58" width="30" height="20.63" as="geometry" />
        </mxCell>
        <mxCell id="Rbc1TjmeXXia_k8j4YUo-75" value="&lt;span style=&quot;font-size: 11px ; background-color: rgb(255 , 255 , 255)&quot;&gt;EndpointData&lt;/span&gt;" style="rounded=0;whiteSpace=wrap;html=1;strokeWidth=1;fillColor=#dae8fc;labelPosition=center;verticalLabelPosition=top;align=center;verticalAlign=bottom;" vertex="1" parent="WIyWlLk6GJQsqaUBKTNV-1">
          <mxGeometry x="-444" y="-21.25" width="142" height="91.25" as="geometry" />
        </mxCell>
        <mxCell id="Rbc1TjmeXXia_k8j4YUo-76" value="Inbox" style="rounded=1;whiteSpace=wrap;html=1;strokeColor=#000000;strokeWidth=1;fillColor=#ffffff;labelPosition=center;verticalLabelPosition=top;align=center;verticalAlign=bottom;" vertex="1" parent="WIyWlLk6GJQsqaUBKTNV-1">
          <mxGeometry x="-432" y="11.52" width="120" height="50" as="geometry" />
        </mxCell>
        <mxCell id="Rbc1TjmeXXia_k8j4YUo-77" value="消息" style="rounded=0;whiteSpace=wrap;html=1;strokeColor=#2D7600;strokeWidth=1;fillColor=#60a917;fontColor=#ffffff;" vertex="1" parent="WIyWlLk6GJQsqaUBKTNV-1">
          <mxGeometry x="-422" y="25.58" width="30" height="20.63" as="geometry" />
        </mxCell>
        <mxCell id="Rbc1TjmeXXia_k8j4YUo-78" value="消息" style="rounded=0;whiteSpace=wrap;html=1;strokeColor=#2D7600;strokeWidth=1;fillColor=#60a917;fontColor=#ffffff;" vertex="1" parent="WIyWlLk6GJQsqaUBKTNV-1">
          <mxGeometry x="-387" y="25.58" width="30" height="20.63" as="geometry" />
        </mxCell>
        <mxCell id="Rbc1TjmeXXia_k8j4YUo-79" value="消息" style="rounded=0;whiteSpace=wrap;html=1;strokeColor=#2D7600;strokeWidth=1;fillColor=#60a917;fontColor=#ffffff;" vertex="1" parent="WIyWlLk6GJQsqaUBKTNV-1">
          <mxGeometry x="-352" y="25.58" width="30" height="20.63" as="geometry" />
        </mxCell>
        <mxCell id="Rbc1TjmeXXia_k8j4YUo-82" value="... ..." style="text;html=1;strokeColor=none;fillColor=none;align=center;verticalAlign=middle;whiteSpace=wrap;rounded=0;" vertex="1" parent="WIyWlLk6GJQsqaUBKTNV-1">
          <mxGeometry x="-300" y="11.520000000000014" width="40" height="20" as="geometry" />
        </mxCell>
        <mxCell id="Rbc1TjmeXXia_k8j4YUo-83" value="" style="curved=1;endArrow=classic;html=1;entryX=0.5;entryY=1;entryDx=0;entryDy=0;" edge="1" parent="WIyWlLk6GJQsqaUBKTNV-1" target="Rbc1TjmeXXia_k8j4YUo-72">
          <mxGeometry width="50" height="50" relative="1" as="geometry">
            <mxPoint x="-660" y="190" as="sourcePoint" />
            <mxPoint x="-614" y="94.01999999999998" as="targetPoint" />
            <Array as="points">
              <mxPoint x="-640" y="152.5" />
            </Array>
          </mxGeometry>
        </mxCell>
        <mxCell id="Rbc1TjmeXXia_k8j4YUo-84" value="1" style="edgeLabel;html=1;align=center;verticalAlign=middle;resizable=0;points=[];" vertex="1" connectable="0" parent="Rbc1TjmeXXia_k8j4YUo-83">
          <mxGeometry x="0.3697" y="-5" relative="1" as="geometry">
            <mxPoint x="-68.17" y="76.28" as="offset" />
          </mxGeometry>
        </mxCell>
        <mxCell id="Rbc1TjmeXXia_k8j4YUo-85" value="" style="curved=1;endArrow=classic;html=1;entryX=0;entryY=0.5;entryDx=0;entryDy=0;" edge="1" parent="WIyWlLk6GJQsqaUBKTNV-1" target="Rbc1TjmeXXia_k8j4YUo-29">
          <mxGeometry width="50" height="50" relative="1" as="geometry">
            <mxPoint x="-660" y="192.50000000000023" as="sourcePoint" />
            <mxPoint x="-600" y="300.0000000000002" as="targetPoint" />
            <Array as="points">
              <mxPoint x="-630" y="205" />
            </Array>
          </mxGeometry>
        </mxCell>
        <mxCell id="Rbc1TjmeXXia_k8j4YUo-86" value="2" style="edgeLabel;html=1;align=center;verticalAlign=middle;resizable=0;points=[];" vertex="1" connectable="0" parent="Rbc1TjmeXXia_k8j4YUo-85">
          <mxGeometry x="0.1516" y="3" relative="1" as="geometry">
            <mxPoint x="-12.439999999999998" y="3" as="offset" />
          </mxGeometry>
        </mxCell>
        <mxCell id="Rbc1TjmeXXia_k8j4YUo-87" value="拉取并处理消息" style="endArrow=classic;html=1;entryX=0.75;entryY=1;entryDx=0;entryDy=0;" edge="1" parent="WIyWlLk6GJQsqaUBKTNV-1" target="Rbc1TjmeXXia_k8j4YUo-76">
          <mxGeometry width="50" height="50" relative="1" as="geometry">
            <mxPoint x="-332" y="170" as="sourcePoint" />
            <mxPoint x="-282" y="120" as="targetPoint" />
          </mxGeometry>
        </mxCell>
      </root>
    </mxGraphModel>
  </diagram>
</mxfile>
